<svg width="23" height="23" viewBox="0 0 23 23" fill="none" xmlns="http://www.w3.org/2000/svg">
<path d="M9.55469 0.0234375C14.8102 0.0234375 19.0867 4.29918 19.0869 9.55469C19.0892 11.6122 18.4213 13.6147 17.1855 15.2598L17.1738 15.2764L22.334 20.4365C22.562 20.6923 22.6833 21.0256 22.6738 21.3682C22.6642 21.7114 22.5241 22.0384 22.2812 22.2812C22.0384 22.5241 21.7114 22.6642 21.3682 22.6738C21.0679 22.6822 20.7752 22.5896 20.5352 22.4131L20.4355 22.333L15.2764 17.1738L15.2598 17.1855C13.6147 18.4213 11.6122 19.0892 9.55469 19.0869C4.29918 19.0867 0.0234375 14.8102 0.0234375 9.55469C0.0236072 4.29929 4.29929 0.0236072 9.55469 0.0234375ZM10.8906 2.83789C9.56245 2.5738 8.1857 2.7094 6.93457 3.22754C5.68318 3.74588 4.61287 4.62378 3.86035 5.75C3.10791 6.87613 2.70709 8.20032 2.70703 9.55469C2.70921 11.3703 3.43099 13.1117 4.71484 14.3955C5.99861 15.6792 7.73923 16.4011 9.55469 16.4033C10.9091 16.4033 12.2332 16.0015 13.3594 15.249C14.4856 14.4965 15.3635 13.4271 15.8818 12.1758C16.4002 10.9244 16.5357 9.54722 16.2715 8.21875C16.0072 6.89046 15.3551 5.67058 14.3975 4.71289C13.4397 3.75512 12.2191 3.10214 10.8906 2.83789Z" fill="#232321" stroke="#232321" stroke-width="0.046875"/>
</svg>
