<svg width="20" height="21" viewBox="0 0 20 21" fill="none" xmlns="http://www.w3.org/2000/svg">
<path d="M9.75 12.0234C11.9878 12.0234 14.1678 12.6551 15.8877 13.8008C17.823 15.0911 19.0538 16.9293 19.4482 19.1172C19.5381 19.6139 19.4161 20.1044 19.1162 20.4629C18.9801 20.626 18.8092 20.7569 18.6162 20.8457C18.4234 20.9344 18.2132 20.9792 18.001 20.9766H1.5C1.28751 20.9793 1.07685 20.9345 0.883789 20.8457C0.69082 20.7569 0.519925 20.626 0.383789 20.4629C0.0841169 20.1045 -0.0369908 19.6147 0.0527344 19.1182C0.447172 16.9301 1.67769 15.0916 3.61328 13.8008C5.33311 12.6547 7.51229 12.0235 9.75 12.0234ZM9.75 0.0234375C11.1499 0.0234375 12.4177 0.563324 13.3252 1.54297C14.2439 2.53491 14.6919 3.87068 14.5859 5.30371C14.3751 8.15903 12.2065 10.4766 9.75 10.4766C7.29356 10.4764 5.12155 8.15841 4.91406 5.30273C4.80951 3.85668 5.25426 2.5185 6.16699 1.53418C7.07018 0.560579 8.34245 0.0235056 9.75 0.0234375Z" fill="#232321" stroke="#232321" stroke-width="0.046875"/>
</svg>
